<?xml version="1.0" standalone="no"?>
<!DOCTYPE svg PUBLIC "-//W3C//DTD SVG 1.1//EN" "http://www.w3.org/Graphics/SVG/1.1/DTD/svg11.dtd">
<svg width="246px" height="48px" version="1.1" xmlns="http://www.w3.org/2000/svg" xmlns:xlink="http://www.w3.org/1999/xlink" xml:space="preserve" style="fill-rule:evenodd;clip-rule:evenodd;stroke-linejoin:round;stroke-miterlimit:1.41421;">
    <g>
        <path d="M28.0769,21.7578L27.9669,21.6848C27.4999,21.3748 26.9849,21.0238 26.5239,20.5988C25.7199,19.8618 25.1199,18.8908 24.8479,17.7938C24.7439,17.3708 24.6869,16.9308 24.6869,16.4778C24.6869,15.9738 24.7399,15.4908 24.8479,15.0338C25.0079,14.3608 25.2889,13.7408 25.7029,13.1888C25.7029,13.1888 25.3589,13.4098 24.8479,13.7958C23.4149,14.8758 20.6739,17.2398 20.5669,19.5728C20.5069,20.8948 20.5629,21.4788 21.3599,22.8988C21.7849,23.5998 22.6779,24.2638 23.4389,24.9588C23.9789,25.3208 24.4569,25.7598 24.8479,26.2638C25.5489,27.1648 25.9719,28.2708 25.9719,29.5008C25.9719,30.7558 25.5629,31.8828 24.8479,32.7828C24.6689,33.0098 24.4709,33.2218 24.2539,33.4168C23.6619,34.1668 21.1069,36.3328 19.3229,37.8098C18.8129,38.2318 18.3649,38.5978 18.0449,38.8588C18.4559,39.0058 18.8249,39.1618 19.2489,39.2788L19.3229,39.2388L24.8479,36.2468L26.6609,35.2658C26.6609,35.2658 27.9469,34.6068 29.2169,33.4288C30.7069,32.1028 31.6509,30.1658 31.6509,28.0078C31.6509,25.3408 30.2239,23.0138 28.0769,21.7578" style="fill:white;"/>
        <path d="M21.715,34.2334C21.715,34.2334 23.647,32.6664 23.302,30.1354C22.985,27.8254 20.849,27.5994 19.333,26.1824L19.322,26.1724C18.59,25.5284 18.053,24.6334 18.053,23.5824C18.053,23.3254 18.001,23.2404 18.053,22.9984C18.053,22.9984 15.62,24.6524 15.356,26.2914C15.319,26.5224 15.302,26.6854 15.302,26.8894C15.302,28.6634 16.438,30.1554 18.041,30.6684C18.126,30.6984 18.172,30.7224 18.264,30.7524C18.654,30.8844 19.027,31.1164 19.322,31.4224C19.704,31.8184 19.957,32.3384 19.957,32.9304C19.957,33.2884 19.906,33.6314 19.757,33.9314C19.65,34.2784 19.5,34.6284 19.322,34.9784C19.029,35.5564 18.657,36.1344 18.265,36.6894C17.773,37.3854 17.329,37.9554 16.981,38.3784C17.139,38.4474 17.298,38.5144 17.459,38.5794L19.322,36.6754L21.715,34.2334Z" style="fill:white;"/>
        <path d="M52.0285,35.8018L54.1615,35.8018L54.1615,37.9568C54.0625,37.9668 53.9475,37.9748 53.8145,37.9798C53.6815,37.9848 53.5655,37.9868 53.4675,37.9868C52.3505,37.9868 51.4695,37.6818 50.8255,37.0718C50.1805,36.4608 49.8585,35.5138 49.8585,34.2308C49.8585,33.6298 49.9425,33.1038 50.1095,32.6508C50.2815,32.1978 50.5125,31.8238 50.8035,31.5298C51.1085,31.2248 51.4545,30.9978 51.8435,30.8508C52.2325,30.7018 52.6635,30.6288 53.1355,30.6288C53.5385,30.6288 53.9205,30.6858 54.2795,30.7988C54.6435,30.9118 54.9635,31.0468 55.2385,31.2038C55.4745,31.3368 55.7155,31.4998 55.9615,31.6918C56.2125,31.8788 56.4045,32.0238 56.5375,32.1268L56.7885,32.1268L56.7885,29.5518C56.1735,29.2518 55.5775,29.0158 55.0025,28.8428C54.4265,28.6658 53.6785,28.5768 52.7585,28.5768C50.9775,28.5778 49.5735,29.0968 48.5455,30.1348C47.5215,31.1728 47.0105,32.5528 47.0105,34.2748C47.0105,36.1048 47.5215,37.5198 48.5455,38.5178C49.5735,39.5118 50.9505,40.0088 52.6775,40.0088C53.4255,40.0078 54.1835,39.9148 54.9505,39.7278C55.7235,39.5408 56.3505,39.3498 56.8325,39.1528L56.8325,33.7428L52.0285,33.7428L52.0285,35.8018Z" style="fill:rgb(168,4,86);"/>
        <path d="M64.1491,32.9092C64.0661,33.1012 63.9351,33.2652 63.7581,33.4032C63.5711,33.5562 63.3421,33.6572 63.0711,33.7062C62.9861,33.7202 62.8931,33.7322 62.7951,33.7422C62.5901,33.7612 62.3571,33.7722 62.0981,33.7722L61.3081,33.7722L61.3081,30.8132L62.2301,30.8132C62.4411,30.8132 62.6301,30.8182 62.7951,30.8272C62.8761,30.8312 62.9501,30.8362 63.0201,30.8432C63.2321,30.8622 63.4231,30.9092 63.5961,30.9832C63.8411,31.0922 64.0161,31.2462 64.1201,31.4482C64.2281,31.6442 64.2821,31.8812 64.2821,32.1562C64.2821,32.4662 64.2371,32.7172 64.1491,32.9092M66.5471,33.8612C66.9261,33.3352 67.1161,32.6502 67.1161,31.8092C67.1151,31.2152 67.0001,30.7242 66.7691,30.3412C66.5381,29.9522 66.2251,29.6332 65.8321,29.3822C65.4471,29.1402 65.0291,28.9832 64.5771,28.9092C64.1241,28.8312 63.5931,28.7912 62.9831,28.7912L58.5631,28.7912L58.5631,39.7792L61.3081,39.7792L61.3081,35.7512L62.2971,35.7512L62.7951,36.4062L65.3591,39.7792L68.7241,39.7792L65.0271,35.1082C65.6621,34.7982 66.1691,34.3832 66.5471,33.8612" style="fill:rgb(168,4,86);"/>
        <path d="M75.4729,35.6475C75.4729,36.4395 75.3229,37.0145 75.0229,37.3735C74.7269,37.7335 74.2619,37.9125 73.6279,37.9125C72.9779,37.9125 72.5089,37.7255 72.2189,37.3515C71.9329,36.9775 71.7899,36.4095 71.7899,35.6475L71.7899,28.7905L69.0309,28.7905L69.0309,35.8095C69.0309,37.1825 69.4269,38.2245 70.2189,38.9385C71.0149,39.6515 72.1519,40.0085 73.6279,40.0085C75.1479,40.0085 76.2939,39.6465 77.0669,38.9235C77.8439,38.1955 78.2329,37.1555 78.2329,35.8015L78.2329,28.7905L75.4729,28.7905L75.4729,35.6475Z" style="fill:rgb(168,4,86);"/>
        <path d="M85.5197,33.123C85.4557,33.32 85.3307,33.51 85.1437,33.691C85.0547,33.78 84.9267,33.861 84.7597,33.935C84.5977,34.004 84.4417,34.051 84.2947,34.075L84.1917,34.091C84.0437,34.111 83.8757,34.123 83.6897,34.127C83.4577,34.132 83.2127,34.134 82.9517,34.134L82.7597,34.134L82.7597,30.843L83.1507,30.843C83.5587,30.843 83.8817,30.853 84.1177,30.872L84.1917,30.879C84.4097,30.901 84.6367,30.963 84.8707,31.065C85.0767,31.148 85.2537,31.303 85.4017,31.529C85.5497,31.751 85.6227,32.016 85.6227,32.326C85.6227,32.661 85.5887,32.927 85.5197,33.123M87.1587,29.515C86.7837,29.264 86.3657,29.082 85.9037,28.969C85.4457,28.851 84.8997,28.791 84.2657,28.791L79.9997,28.791L79.9997,39.779L82.7597,39.779L82.7597,36.186L84.2067,36.186C84.5997,36.186 84.9537,36.154 85.2687,36.09C85.5887,36.026 85.8837,35.937 86.1547,35.824C86.4247,35.711 86.6707,35.573 86.8927,35.411C87.1187,35.248 87.3257,35.071 87.5127,34.879C87.8167,34.569 88.0507,34.184 88.2127,33.721C88.3757,33.259 88.4567,32.772 88.4567,32.26C88.4567,31.625 88.3437,31.079 88.1177,30.621C87.8907,30.159 87.5717,29.79 87.1587,29.515" style="fill:rgb(168,4,86);"/>
        <path d="M96.548,35.957C96.42,36.38 96.238,36.752 96.002,37.071C95.78,37.366 95.517,37.586 95.213,37.728C94.907,37.866 94.593,37.935 94.268,37.935L94.264,37.935C93.946,37.934 93.637,37.87 93.338,37.743C93.038,37.61 92.77,37.391 92.534,37.086C92.302,36.786 92.12,36.415 91.987,35.972C91.855,35.524 91.788,34.963 91.788,34.289C91.788,33.635 91.857,33.071 91.995,32.6C92.137,32.127 92.322,31.748 92.549,31.463C92.804,31.153 93.07,30.939 93.345,30.82C93.62,30.698 93.927,30.637 94.264,30.636L94.268,30.636C94.588,30.636 94.895,30.702 95.19,30.836C95.49,30.964 95.759,31.178 95.995,31.478C96.221,31.773 96.401,32.151 96.533,32.614C96.671,33.071 96.74,33.628 96.74,34.282C96.74,34.971 96.676,35.529 96.548,35.957M98.164,30.098C97.216,29.075 95.916,28.564 94.264,28.562L94.261,28.562C92.602,28.562 91.302,29.077 90.357,30.106C89.412,31.128 88.94,32.523 88.94,34.289C88.94,36.041 89.412,37.433 90.357,38.466C91.302,39.494 92.602,40.009 94.261,40.009L94.264,40.009C95.916,40.008 97.216,39.498 98.164,38.481C99.114,37.463 99.589,36.065 99.589,34.289C99.589,32.514 99.114,31.116 98.164,30.098" style="fill:rgb(168,4,86);"/>
        <path d="M112.207,34.5107C111.838,34.0427 111.273,33.6717 110.51,33.3967C110.121,33.2587 109.755,33.1507 109.41,33.0717C109.071,32.9927 108.717,32.9117 108.348,32.8277C107.777,32.6957 107.391,32.5477 107.189,32.3847C106.992,32.2177 106.894,31.9937 106.894,31.7137C106.894,31.5217 106.956,31.3497 107.079,31.1977C107.206,31.0397 107.356,30.9217 107.529,30.8427C107.74,30.7437 107.942,30.6777 108.133,30.6437C108.326,30.6097 108.542,30.5917 108.783,30.5917C109.403,30.5927 110.005,30.7127 110.591,30.9537C111.181,31.1957 111.681,31.4897 112.089,31.8387L112.333,31.8387L112.333,29.3297C111.821,29.1037 111.241,28.9237 110.591,28.7907C109.947,28.6577 109.297,28.5917 108.643,28.5917C107.339,28.5927 106.252,28.9117 105.381,29.5517C104.51,30.1867 104.075,31.0177 104.075,32.0457C104.075,32.8087 104.259,33.4437 104.628,33.9487C104.997,34.4557 105.607,34.8607 106.458,35.1597C106.828,35.2877 107.223,35.3967 107.647,35.4847C108.075,35.5727 108.476,35.6667 108.85,35.7647C109.149,35.8437 109.408,35.9697 109.624,36.1417C109.84,36.3137 109.949,36.5367 109.949,36.8137C109.949,37.0587 109.883,37.2577 109.75,37.4107C109.617,37.5587 109.455,37.6737 109.263,37.7577C109.105,37.8317 108.896,37.8857 108.635,37.9197C108.379,37.9537 108.173,37.9717 108.016,37.9717C107.391,37.9717 106.746,37.8457 106.082,37.5957C105.417,37.3447 104.81,36.9857 104.259,36.5177L104.008,36.5177L104.008,39.1297C104.555,39.3707 105.145,39.5727 105.78,39.7357C106.419,39.8977 107.16,39.9787 108.001,39.9787C109.462,39.9787 110.621,39.6467 111.477,38.9827C112.337,38.3187 112.768,37.4407 112.768,36.3477C112.768,35.5857 112.581,34.9737 112.207,34.5107" style="fill:rgb(61,99,169);"/>
        <path d="M117.827,35.5439L116.705,35.5439L117.827,31.9199L117.827,31.9209L118.949,35.5439L117.827,35.5439ZM117.827,28.7909L116.358,28.7909L112.646,39.7789L115.413,39.7789L116.1,37.5359L119.554,37.5359L120.24,39.7789L123.081,39.7789L119.369,28.7909L117.827,28.7909Z" style="fill:rgb(61,99,169);"/>
        <path d="M130.715,35.0859L127.21,28.7909L123.822,28.7909L123.822,39.7789L126.347,39.7789L126.347,32.1189L130.582,39.7789L133.239,39.7789L133.239,28.7909L130.715,28.7909L130.715,35.0859Z" style="fill:rgb(61,99,169);"/>
        <path d="M142.046,28.8574C141.727,28.7694 141.392,28.7004 141.042,28.6514C140.693,28.6014 140.299,28.5774 139.861,28.5774C138.214,28.5784 136.902,29.0964 135.929,30.1344C134.959,31.1684 134.475,32.5544 134.475,34.2964C134.475,36.1024 134.959,37.5054 135.929,38.5034C136.898,39.4974 138.206,39.9934 139.855,39.9934C140.381,39.9934 140.794,39.9664 141.094,39.9124C141.395,39.8584 141.717,39.7794 142.061,39.6754C142.341,39.5924 142.614,39.4914 142.88,39.3744C143.146,39.2514 143.379,39.1424 143.581,39.0484L143.581,36.4654L143.33,36.4654C143.192,36.5894 143.029,36.7294 142.843,36.8864C142.656,37.0444 142.44,37.1994 142.193,37.3514C141.967,37.4994 141.69,37.6344 141.359,37.7574C141.03,37.8764 140.683,37.9344 140.319,37.9344C139.97,37.9344 139.618,37.8734 139.264,37.7504C138.915,37.6274 138.597,37.4274 138.312,37.1524C138.017,36.8674 137.778,36.4934 137.597,36.0314C137.414,35.5634 137.323,34.9884 137.323,34.3034C137.323,33.6544 137.409,33.0914 137.581,32.6144C137.759,32.1364 137.984,31.7574 138.261,31.4774C138.561,31.1684 138.875,30.9514 139.205,30.8284C139.539,30.7004 139.906,30.6354 140.305,30.6354C140.639,30.6364 140.959,30.6934 141.264,30.8054C141.574,30.9144 141.857,31.0464 142.112,31.2044C142.368,31.3624 142.597,31.5244 142.799,31.6914C143,31.8534 143.168,31.9944 143.301,32.1124L143.581,32.1124L143.581,29.4924C143.398,29.3984 143.16,29.2884 142.865,29.1604C142.57,29.0324 142.297,28.9314 142.046,28.8574" style="fill:rgb(61,99,169);"/>
        <path d="M151.82,35.957C151.692,36.38 151.509,36.752 151.273,37.071C151.052,37.366 150.789,37.586 150.484,37.728C150.178,37.866 149.864,37.935 149.54,37.935L149.536,37.935C149.217,37.934 148.909,37.87 148.61,37.743C148.309,37.61 148.042,37.391 147.805,37.086C147.574,36.786 147.392,36.415 147.258,35.972C147.127,35.524 147.06,34.963 147.06,34.289C147.06,33.635 147.129,33.071 147.266,32.6C147.409,32.127 147.593,31.748 147.82,31.463C148.076,31.153 148.341,30.939 148.617,30.82C148.891,30.698 149.198,30.637 149.536,30.636L149.54,30.636C149.859,30.636 150.167,30.702 150.462,30.836C150.762,30.964 151.03,31.178 151.266,31.478C151.493,31.773 151.673,32.151 151.804,32.614C151.942,33.071 152.011,33.628 152.011,34.282C152.011,34.971 151.947,35.529 151.82,35.957M149.536,28.562L149.532,28.562C147.874,28.562 146.573,29.077 145.628,30.106C144.683,31.128 144.211,32.523 144.211,34.289C144.211,36.041 144.683,37.433 145.628,38.466C146.573,39.494 147.874,40.009 149.532,40.009L149.536,40.009C151.187,40.008 152.487,39.498 153.435,38.481C154.385,37.463 154.86,36.065 154.86,34.289C154.86,32.514 154.385,31.116 153.435,30.098C152.487,29.075 151.187,28.564 149.536,28.562" style="fill:rgb(61,99,169);"/>
        <path d="M161.726,32.9092C161.643,33.1012 161.512,33.2652 161.335,33.4032C161.148,33.5562 160.919,33.6572 160.649,33.7062C160.563,33.7202 160.47,33.7322 160.372,33.7422C160.166,33.7612 159.934,33.7722 159.674,33.7722L158.885,33.7722L158.885,30.8132L159.807,30.8132C160.019,30.8132 160.207,30.8182 160.372,30.8272C160.453,30.8312 160.528,30.8362 160.597,30.8432C160.809,30.8622 161,30.9092 161.173,30.9832C161.418,31.0922 161.593,31.2462 161.697,31.4482C161.805,31.6442 161.859,31.8812 161.859,32.1562C161.859,32.4662 161.815,32.7172 161.726,32.9092M164.124,33.8612C164.503,33.3352 164.693,32.6502 164.693,31.8092C164.693,31.2152 164.577,30.7242 164.346,30.3412C164.115,29.9522 163.802,29.6332 163.409,29.3822C163.025,29.1402 162.607,28.9832 162.154,28.9092C161.702,28.8312 161.17,28.7912 160.56,28.7912L156.14,28.7912L156.14,39.7792L158.885,39.7792L158.885,35.7512L159.873,35.7512L160.372,36.4062L162.937,39.7792L166.301,39.7792L162.604,35.1082C163.239,34.7982 163.746,34.3832 164.124,33.8612" style="fill:rgb(61,99,169);"/>
        <path d="M176.404,33.3965C176.015,33.2585 175.649,33.1505 175.304,33.0715C174.965,32.9935 174.611,32.9125 174.242,32.8285C173.672,32.6955 173.285,32.5475 173.084,32.3845C172.886,32.2175 172.788,31.9945 172.788,31.7135C172.788,31.5215 172.849,31.3495 172.972,31.1975C173.1,31.0395 173.251,30.9215 173.423,30.8425C173.634,30.7445 173.836,30.6775 174.028,30.6435C174.219,30.6095 174.436,30.5915 174.677,30.5915C175.298,30.5925 175.9,30.7125 176.485,30.9545C177.076,31.1955 177.575,31.4905 177.983,31.8385L178.227,31.8385L178.227,29.3305C177.715,29.1035 177.134,28.9235 176.485,28.7905C175.84,28.6585 175.191,28.5915 174.538,28.5915C173.233,28.5925 172.146,28.9125 171.275,29.5515C170.405,30.1865 169.969,31.0175 169.969,32.0455C169.969,32.8085 170.153,33.4435 170.522,33.9495C170.891,34.4565 171.502,34.8605 172.352,35.1605C172.721,35.2885 173.118,35.3965 173.541,35.4845C173.968,35.5735 174.37,35.6665 174.744,35.7645C175.044,35.8435 175.302,35.9695 175.518,36.1415C175.735,36.3135 175.843,36.5375 175.843,36.8135C175.843,37.0585 175.777,37.2575 175.644,37.4115C175.511,37.5585 175.348,37.6735 175.157,37.7575C175,37.8315 174.791,37.8855 174.53,37.9195C174.274,37.9545 174.067,37.9715 173.91,37.9715C173.285,37.9715 172.64,37.8455 171.976,37.5955C171.312,37.3445 170.705,36.9855 170.153,36.5175L169.903,36.5175L169.903,39.1295C170.449,39.3715 171.04,39.5735 171.674,39.7355C172.313,39.8975 173.053,39.9785 173.895,39.9785C175.356,39.9785 176.515,39.6465 177.371,38.9825C178.232,38.3185 178.663,37.4405 178.663,36.3475C178.662,35.5855 178.475,34.9735 178.101,34.5105C177.732,34.0425 177.167,33.6715 176.404,33.3965" style="fill:rgb(61,99,169);"/>
        <path d="M179.721,39.7793L187.152,39.7793L187.152,37.6833L182.466,37.6833L182.466,34.9093L186.782,34.9093L186.782,32.8133L182.466,32.8133L182.466,30.8863L187.152,30.8863L187.152,28.7913L179.721,28.7913L179.721,39.7793Z" style="fill:rgb(61,99,169);"/>
        <path d="M193.045,35.8018L195.178,35.8018L195.178,37.9568C195.079,37.9668 194.964,37.9748 194.83,37.9798C194.697,37.9848 194.582,37.9868 194.484,37.9868C193.367,37.9868 192.486,37.6818 191.842,37.0718C191.197,36.4608 190.875,35.5138 190.875,34.2308C190.875,33.6298 190.959,33.1038 191.126,32.6508C191.298,32.1978 191.529,31.8238 191.82,31.5298C192.125,31.2248 192.472,30.9978 192.861,30.8508C193.249,30.7018 193.68,30.6288 194.152,30.6288C194.555,30.6288 194.937,30.6858 195.296,30.7988C195.659,30.9118 195.98,31.0468 196.255,31.2038C196.491,31.3368 196.733,31.4998 196.979,31.6918C197.229,31.8788 197.421,32.0238 197.554,32.1268L197.805,32.1268L197.805,29.5518C197.19,29.2518 196.595,29.0158 196.019,28.8428C195.443,28.6658 194.695,28.5768 193.775,28.5768C191.994,28.5778 190.59,29.0968 189.562,30.1348C188.538,31.1728 188.027,32.5528 188.027,34.2748C188.027,36.1048 188.538,37.5198 189.562,38.5178C190.59,39.5118 191.968,40.0088 193.694,40.0088C194.443,40.0078 195.199,39.9148 195.967,39.7278C196.739,39.5408 197.366,39.3498 197.849,39.1528L197.849,33.7428L193.045,33.7428L193.045,35.8018Z" style="fill:rgb(61,99,169);"/>
        <path d="M205.866,35.6475C205.866,36.4395 205.717,37.0145 205.416,37.3735C205.121,37.7335 204.656,37.9125 204.021,37.9125C203.372,37.9125 202.902,37.7255 202.612,37.3515C202.327,36.9775 202.184,36.4095 202.184,35.6475L202.184,28.7905L199.424,28.7905L199.424,35.8095C199.424,37.1825 199.82,38.2245 200.612,38.9385C201.409,39.6515 202.546,40.0085 204.021,40.0085C205.542,40.0085 206.688,39.6465 207.461,38.9235C208.237,38.1955 208.627,37.1555 208.627,35.8015L208.627,28.7905L205.866,28.7905L205.866,35.6475Z" style="fill:rgb(61,99,169);"/>
        <path d="M215.979,32.9092C215.896,33.1012 215.765,33.2652 215.588,33.4032C215.401,33.5562 215.172,33.6572 214.902,33.7062C214.816,33.7202 214.723,33.7322 214.626,33.7422C214.419,33.7612 214.188,33.7722 213.928,33.7722L213.138,33.7722L213.138,30.8132L214.061,30.8132C214.272,30.8132 214.46,30.8182 214.626,30.8272C214.706,30.8312 214.781,30.8362 214.85,30.8432C215.062,30.8622 215.253,30.9092 215.426,30.9832C215.671,31.0922 215.846,31.2462 215.95,31.4482C216.058,31.6442 216.112,31.8812 216.112,32.1562C216.112,32.4662 216.068,32.7172 215.979,32.9092M218.377,33.8612C218.756,33.3352 218.946,32.6502 218.946,31.8092C218.946,31.2152 218.831,30.7242 218.599,30.3412C218.368,29.9522 218.055,29.6332 217.662,29.3822C217.278,29.1402 216.86,28.9832 216.408,28.9092C215.955,28.8312 215.423,28.7912 214.813,28.7912L210.393,28.7912L210.393,39.7792L213.138,39.7792L213.138,35.7512L214.127,35.7512L214.626,36.4062L217.19,39.7792L220.555,39.7792L216.858,35.1082C217.493,34.7982 217.999,34.3832 218.377,33.8612" style="fill:rgb(61,99,169);"/>
        <path d="M227.982,35.957C227.854,36.38 227.673,36.752 227.436,37.071C227.214,37.366 226.951,37.586 226.646,37.728C226.341,37.866 226.027,37.935 225.702,37.935L225.698,37.935C225.38,37.934 225.071,37.87 224.772,37.743C224.471,37.61 224.204,37.391 223.967,37.086C223.736,36.786 223.554,36.415 223.421,35.972C223.289,35.524 223.222,34.963 223.222,34.289C223.222,33.635 223.291,33.071 223.429,32.6C223.572,32.127 223.756,31.748 223.982,31.463C224.238,31.153 224.503,30.939 224.779,30.82C225.053,30.698 225.36,30.637 225.698,30.636L225.702,30.636C226.021,30.636 226.329,30.702 226.624,30.836C226.924,30.964 227.192,31.178 227.428,31.478C227.655,31.773 227.835,32.151 227.967,32.614C228.105,33.071 228.174,33.628 228.174,34.282C228.173,34.971 228.11,35.529 227.982,35.957M225.698,28.562L225.694,28.562C224.037,28.562 222.735,29.077 221.791,30.106C220.846,31.128 220.374,32.523 220.374,34.289C220.374,36.041 220.846,37.433 221.791,38.466C222.735,39.494 224.037,40.009 225.694,40.009L225.698,40.009C227.349,40.008 228.649,39.498 229.598,38.481C230.548,37.463 231.023,36.065 231.023,34.289C231.022,32.514 230.548,31.116 229.598,30.098C228.649,29.075 227.349,28.564 225.698,28.562" style="fill:rgb(61,99,169);"/>
        <path d="M239.904,34.5107C239.535,34.0427 238.968,33.6717 238.207,33.3967C237.817,33.2587 237.451,33.1507 237.107,33.0717C236.767,32.9927 236.413,32.9117 236.044,32.8277C235.473,32.6957 235.087,32.5477 234.885,32.3847C234.688,32.2177 234.59,31.9937 234.59,31.7137C234.59,31.5217 234.652,31.3497 234.775,31.1977C234.902,31.0397 235.052,30.9217 235.225,30.8427C235.436,30.7437 235.638,30.6777 235.83,30.6437C236.022,30.6097 236.238,30.5917 236.479,30.5917C237.099,30.5927 237.702,30.7127 238.288,30.9537C238.878,31.1957 239.378,31.4897 239.786,31.8387L240.029,31.8387L240.029,29.3297C239.517,29.1037 238.937,28.9237 238.288,28.7907C237.643,28.6577 236.994,28.5917 236.34,28.5917C235.036,28.5927 233.948,28.9117 233.078,29.5517C232.207,30.1867 231.771,31.0177 231.771,32.0457C231.771,32.8087 231.956,33.4437 232.325,33.9487C232.694,34.4557 233.303,34.8607 234.155,35.1597C234.524,35.2877 234.92,35.3967 235.343,35.4847C235.771,35.5727 236.172,35.6667 236.546,35.7647C236.846,35.8437 237.104,35.9697 237.321,36.1417C237.537,36.3137 237.645,36.5367 237.645,36.8137C237.645,37.0587 237.579,37.2577 237.446,37.4107C237.313,37.5587 237.151,37.6737 236.96,37.7577C236.801,37.8317 236.592,37.8857 236.332,37.9197C236.076,37.9537 235.87,37.9717 235.712,37.9717C235.087,37.9717 234.443,37.8457 233.778,37.5957C233.114,37.3447 232.506,36.9857 231.956,36.5177L231.705,36.5177L231.705,39.1297C232.251,39.3707 232.842,39.5727 233.476,39.7357C234.115,39.8977 234.856,39.9787 235.697,39.9787C237.158,39.9787 238.317,39.6467 239.174,38.9827C240.034,38.3187 240.465,37.4407 240.465,36.3477C240.465,35.5857 240.277,34.9737 239.904,34.5107" style="fill:rgb(61,99,169);"/>
        <path d="M29.217,33.4287C27.946,34.6067 26.661,35.2657 26.661,35.2657L24.848,36.2467L19.322,39.2397L19.249,39.2797C18.825,39.1617 18.456,39.0057 18.045,38.8587C18.365,38.5977 18.813,38.2317 19.322,37.8097C21.107,36.3327 23.662,34.1667 24.254,33.4167C24.47,33.2217 24.669,33.0097 24.848,32.7827C25.563,31.8827 25.971,30.7557 25.971,29.5007C25.971,28.2707 25.548,27.1647 24.848,26.2637C24.457,25.7597 23.979,25.3207 23.439,24.9587C22.677,24.2637 21.784,23.5997 21.36,22.8987C20.563,21.4787 20.507,20.8947 20.567,19.5737C20.673,17.2397 23.415,14.8757 24.848,13.7957C25.359,13.4097 25.703,13.1887 25.703,13.1887C25.289,13.7417 25.007,14.3607 24.848,15.0337C24.74,15.4917 24.687,15.9737 24.687,16.4777C24.687,16.9307 24.743,17.3707 24.848,17.7937C25.12,18.8907 25.72,19.8627 26.524,20.5987C26.985,21.0237 27.5,21.3747 27.966,21.6847L28.077,21.7577C30.224,23.0137 31.651,25.3407 31.651,28.0077C31.651,30.1657 30.707,32.1027 29.217,33.4287M16.981,38.3787C17.329,37.9547 17.773,37.3857 18.265,36.6897C18.657,36.1347 19.029,35.5567 19.322,34.9787C19.5,34.6277 19.65,34.2787 19.757,33.9317C19.906,33.6317 19.957,33.2877 19.957,32.9307C19.957,32.3387 19.704,31.8187 19.322,31.4227C19.027,31.1157 18.654,30.8847 18.264,30.7517C18.172,30.7227 18.126,30.6987 18.041,30.6687C16.438,30.1557 15.302,28.6627 15.302,26.8897C15.302,26.6857 15.319,26.5227 15.356,26.2907C15.62,24.6527 18.053,22.9977 18.053,22.9977C18.001,23.2397 18.053,23.3247 18.053,23.5817C18.053,24.6337 18.59,25.5287 19.322,26.1727L19.333,26.1827C20.849,27.5997 22.985,27.8247 23.302,30.1357C23.647,32.6657 21.715,34.2337 21.715,34.2337L19.322,36.6757L17.459,38.5787C17.298,38.5147 17.139,38.4477 16.981,38.3787M24.848,5.9707C24.697,5.9667 24.545,5.9637 24.393,5.9637C22.63,5.9637 20.927,6.2287 19.322,6.7187C12.283,8.8697 7.144,15.3747 7.144,23.0297C7.144,30.6837 12.283,37.1887 19.322,39.3397C20.927,39.8287 22.63,40.0947 24.393,40.0947C24.545,40.0947 24.697,40.0917 24.848,40.0877C34.139,39.8477 41.642,32.2777 41.642,23.0297C41.642,13.7807 34.139,6.2107 24.848,5.9707" style="fill:rgb(61,99,169);"/>
    </g>
</svg>
